<?xml version="1.0" encoding="utf-8"?>
<!-- Generator: Adobe Illustrator 18.0.0, SVG Export Plug-In . SVG Version: 6.00 Build 0)  -->
<!DOCTYPE svg PUBLIC "-//W3C//DTD SVG 1.1//EN" "http://www.w3.org/Graphics/SVG/1.1/DTD/svg11.dtd">
<svg version="1.1" id="レイヤー_1" xmlns="http://www.w3.org/2000/svg" xmlns:xlink="http://www.w3.org/1999/xlink" x="0px"
	 y="0px" width="146.5px" height="41.3px" viewBox="0 0 146.5 41.3" enable-background="new 0 0 146.5 41.3" xml:space="preserve">
<g>
	<path fill="#1C1C1C" d="M23.3,15c-2.7,0-4.8,2.2-4.8,4.8v1c0,0.4-0.3,0.7-0.7,0.7h-5.1c-0.4,0-0.7-0.3-0.7-0.7v-6c0-2.2-1.8-4-4-4
		H2.2c-0.4,0-0.7,0.3-0.7,0.7v1.7c0,0.4,0.3,0.7,0.7,0.7h5.8c0.5,0,0.8,0.4,0.8,0.8v6c0,0.4-0.3,0.7-0.7,0.7H6.4
		C2.9,21.6,0,24.5,0,28v1.7c0,3.3,2.7,5.9,5.9,5.9c3.3,0,5.9-2.7,5.9-5.9v-4.2c0-0.4,0.3-0.7,0.7-0.7h5.1c0.4,0,0.7,0.3,0.7,0.7v9.4
		c0,0.4,0.3,0.7,0.7,0.7h1.7c0.4,0,0.7-0.3,0.7-0.7v-9.4c0-0.4,0.3-0.7,0.7-0.7h1c2.7,0,4.9-2.2,4.9-4.9C28.1,17.2,26,15,23.3,15
		 M8.8,29.7c0,1.6-1.3,2.8-2.8,2.8c-1.6,0-2.8-1.3-2.8-2.8V28c0-1.8,1.5-3.2,3.2-3.2H8c0.4,0,0.7,0.3,0.7,0.7V29.7z M23.3,21.6h-1
		c-0.4,0-0.7-0.3-0.7-0.7v-1c0-0.9,0.8-1.7,1.7-1.7c0.9,0,1.7,0.8,1.7,1.7C25,20.8,24.2,21.6,23.3,21.6"/>
	<path fill="#1C1C1C" d="M52.6,29.6c0,1.6-1.3,2.9-2.9,2.9s-2.9-1.3-2.9-2.9V28c0-3.5-2.9-6.4-6.4-6.4h-1.6c-0.4,0-0.7-0.3-0.7-0.7
		v-9.2c0-0.4-0.3-0.7-0.7-0.7h-1.7c-0.4,0-0.7,0.3-0.7,0.7v9.2c0,0.4-0.3,0.7-0.7,0.8c-3.2,0.3-5.7,3-5.7,6.3v2.9
		c0,2.6,2.1,4.8,4.8,4.8c2.6,0,4.8-2.1,4.8-4.8v-5.4c0-0.4,0.3-0.7,0.7-0.7h1.6c1.8,0,3.2,1.5,3.2,3.2v1.6c0,3.3,2.7,6,6,6
		c3.3,0,6-2.7,6-6v-7.3c0-0.4-0.3-0.7-0.7-0.7h-1.7c-0.4,0-0.7,0.3-0.7,0.7V29.6z M35,30.8c0,0.9-0.7,1.7-1.7,1.7
		c-0.9,0-1.7-0.7-1.7-1.7V28c0-1.6,1.1-2.9,2.6-3.2c0.4-0.1,0.8,0.2,0.8,0.6V30.8z"/>
	<path fill="#1C1C1C" d="M74,13.6c0-2.5-2-4.6-4.4-4.6h-5.8c-2.5,0-4.4,2-4.4,4.4v0.8c0,0.4-0.3,0.7-0.7,0.7h-2.1
		c-0.4,0-0.7,0.3-0.7,0.7v1.7c0,0.4,0.3,0.7,0.7,0.7h2.1c0.4,0,0.7,0.3,0.7,0.7v10.5c0,0.4,0.3,0.7,0.7,0.7h1.7
		c0.4,0,0.7-0.3,0.7-0.7V18.9c0-0.4,0.3-0.7,0.7-0.7h6.4C72,18.2,74,16.1,74,13.6 M62.4,13.5c0-0.7,0.6-1.3,1.3-1.3h5.8
		c0.7,0,1.3,0.6,1.3,1.4c0,0.8-0.6,1.4-1.3,1.4h-6.4c-0.4,0-0.7-0.3-0.7-0.7V13.5z"/>
	<path fill="#1C1C1C" d="M80.7,15.1c-2.2,0-4,1.8-4,4v1.9c0,0.4-0.3,0.7-0.7,0.7h-3.8c-3.5,0-6.4,2.9-6.4,6.4v1.3
		c0,3.5,2.9,6.4,6.4,6.4h1.3c3.5,0,6.4-2.9,6.4-6.4v-3.8c0-0.4,0.3-0.7,0.7-0.7h2.9c0.4,0,0.7-0.3,0.7-0.7v-1.7
		c0-0.4-0.3-0.7-0.7-0.7h-2.9c-0.4,0-0.7-0.3-0.7-0.7V19c0-0.5,0.4-0.8,0.8-0.8h2.9c0.4,0,0.7-0.3,0.7-0.7v-1.7
		c0-0.4-0.3-0.7-0.7-0.7H80.7z M76.7,29.3c0,1.8-1.5,3.2-3.2,3.2h-1.3c-1.8,0-3.2-1.5-3.2-3.2V28c0-1.8,1.5-3.2,3.2-3.2H76
		c0.4,0,0.7,0.3,0.7,0.7V29.3z"/>
	<path fill="#1C1C1C" d="M91.7,19.5h6.5c0.4,0,0.7-0.3,0.7-0.7v-1.7c0-0.4-0.3-0.7-0.7-0.7h-6.5c-0.5,0-0.8-0.4-0.8-0.8v-0.7
		c0-0.4,0.3-0.7,0.7-0.7h6.6c0.4,0,0.7-0.3,0.7-0.7v-1.7c0-0.4-0.3-0.7-0.7-0.7h-6.6c-0.4,0-0.7-0.3-0.7-0.7V9.4
		c0-0.5,0.4-0.8,0.8-0.8h8.8c0.4,0,0.7,0.3,0.7,0.7v9.4c0,0.4,0.3,0.7,0.7,0.7h1.7c0.4,0,0.7-0.3,0.7-0.7V9.3c0-0.4,0.3-0.7,0.7-0.7
		h8.7c0.5,0,0.8,0.4,0.8,0.8v0.8c0,0.4-0.3,0.7-0.7,0.7h-6.5c-0.4,0-0.7,0.3-0.7,0.7v1.7c0,0.4,0.3,0.7,0.7,0.7h6.5
		c0.4,0,0.7,0.3,0.7,0.7v0.7c0,0.5-0.4,0.8-0.8,0.8h-6.4c-0.4,0-0.7,0.3-0.7,0.7v1.7c0,0.4,0.3,0.7,0.7,0.7h6.4c2.2,0,4-1.8,4-4V9.4
		c0-2.2-1.8-4-4-4H105c-0.4,0-0.7-0.3-0.7-0.7V3.8c0-0.4,0.3-0.7,0.7-0.7h12c0.4,0,0.7-0.3,0.7-0.7V0.7c0-0.4-0.3-0.7-0.7-0.7H88.4
		c-0.4,0-0.7,0.3-0.7,0.7v1.7c0,0.4,0.3,0.7,0.7,0.7h12c0.4,0,0.7,0.3,0.7,0.7v0.9c0,0.4-0.3,0.7-0.7,0.7h-8.8c-2.2,0-4,1.8-4,4v6.1
		C87.7,17.7,89.5,19.5,91.7,19.5"/>
	<path fill="#1C1C1C" d="M104.4,37.4v-1c0-0.4,0.3-0.7,0.7-0.7h8.7c2.2,0,4-1.8,4-4v-6.1c0-2.2-1.8-4-4-4h-22c-2.2,0-4,1.8-4,4v6.1
		c0,2.2,1.8,4,4,4h8.8c0.4,0,0.7,0.3,0.7,0.7v1c0,2.2,1.8,4,4,4H117c0.4,0,0.7-0.3,0.7-0.7v-1.7c0-0.4-0.3-0.7-0.7-0.7h-11.8
		C104.7,38.2,104.4,37.8,104.4,37.4 M114.6,31.7c0,0.5-0.4,0.8-0.8,0.8h-8.7c-0.4,0-0.7-0.3-0.7-0.7v-0.9c0-0.4,0.3-0.7,0.7-0.7h8.8
		c0.4,0,0.7,0.3,0.7,0.7V31.7z M114.6,25.6v0.8c0,0.4-0.3,0.7-0.7,0.7h-8.8c-0.4,0-0.7-0.3-0.7-0.7v-0.9c0-0.4,0.3-0.7,0.7-0.7h8.7
		C114.2,24.7,114.6,25.1,114.6,25.6 M90.8,25.6c0-0.5,0.4-0.8,0.8-0.8h8.8c0.4,0,0.7,0.3,0.7,0.7v0.9c0,0.4-0.3,0.7-0.7,0.7h-8.9
		c-0.4,0-0.7-0.3-0.7-0.7V25.6z M91.7,32.5c-0.5,0-0.8-0.4-0.8-0.8v-0.8c0-0.4,0.3-0.7,0.7-0.7h8.9c0.4,0,0.7,0.3,0.7,0.7v0.9
		c0,0.4-0.3,0.7-0.7,0.7H91.7z"/>
	<path fill="#1C1C1C" d="M142.5,10.9h-10.7c-0.3-0.3-0.4-0.4-0.7-0.7v-4c-0.3-0.3-0.4-0.4-0.7-0.7h-1.7c-0.3,0.3-0.4,0.4-0.7,0.7v4
		c-0.3,0.3-0.4,0.4-0.7,0.7h-5.3c-0.3,0.3-0.4,0.4-0.7,0.7v1.7c0.3,0.3,0.4,0.4,0.7,0.7h5.3c0.3,0.3,0.4,0.4,0.7,0.7v16.9
		c-0.3,0.3-0.5,0.5-0.8,0.8h-5.2c-0.3,0.3-0.4,0.4-0.7,0.7v1.7c0.3,0.3,0.4,0.4,0.7,0.7h5.2c1.5-1.5,2.4-2.4,4-4V14.8
		c0.3-0.3,0.4-0.4,0.7-0.7h10.7c0.3,0.3,0.5,0.5,0.8,0.8v16.8c-0.3,0.3-0.5,0.5-0.8,0.8h-4.9c-0.3,0.3-0.4,0.4-0.7,0.7v1.7
		c0.3,0.3,0.4,0.4,0.7,0.7h4.9c1.5-1.5,2.4-2.4,4-4V14.9C146.5,12.7,144.7,10.9,142.5,10.9"/>
</g>
</svg>
