<?xml version="1.0" encoding="utf-8"?>
<!-- Generator: Adobe Illustrator 24.1.0, SVG Export Plug-In . SVG Version: 6.00 Build 0)  -->
<svg version="1.1" id="レイヤー_1" xmlns="http://www.w3.org/2000/svg" xmlns:xlink="http://www.w3.org/1999/xlink" x="0px"
	 y="0px" width="63.5px" height="17.9px" viewBox="0 0 63.5 17.9" style="enable-background:new 0 0 63.5 17.9;"
	 xml:space="preserve">
<style type="text/css">
	.st0{fill:#00CF46;}
</style>
<g>
	<g>
		<g>
			<path class="st0" d="M10.1,6.5C8.9,6.5,8,7.5,8,8.6V9c0,0.2-0.1,0.3-0.3,0.3H5.5C5.3,9.4,5.2,9.2,5.2,9V6.5
				c0-0.9-0.8-1.7-1.7-1.7H0.9C0.8,4.7,0.6,4.9,0.6,5v0.7c0,0.2,0.1,0.3,0.3,0.3h2.5c0.2,0,0.4,0.2,0.4,0.4V9c0,0.2-0.1,0.3-0.3,0.3
				H2.8C1.2,9.4,0,10.6,0,12.1v0.7c0,1.4,1.2,2.6,2.6,2.6c1.4,0,2.6-1.2,2.6-2.6V11c0-0.2,0.1-0.3,0.3-0.3h2.2C7.9,10.7,8,10.9,8,11
				v4.1c0,0.2,0.1,0.3,0.3,0.3H9c0.2,0,0.3-0.1,0.3-0.3V11c0-0.2,0.1-0.3,0.3-0.3h0.4c1.2,0,2.1-0.9,2.1-2.1
				C12.2,7.5,11.2,6.5,10.1,6.5 M3.8,12.9c0,0.7-0.5,1.2-1.2,1.2c-0.7,0-1.2-0.5-1.2-1.2v-0.7c0-0.8,0.6-1.4,1.4-1.4h0.7
				c0.2,0,0.3,0.1,0.3,0.3V12.9z M10.1,9.4H9.7C9.5,9.4,9.3,9.2,9.3,9V8.6c0-0.4,0.3-0.7,0.7-0.7c0.4,0,0.7,0.3,0.7,0.7
				C10.8,9,10.5,9.4,10.1,9.4"/>
			<path class="st0" d="M22.8,12.8c0,0.7-0.6,1.3-1.3,1.3c-0.7,0-1.3-0.6-1.3-1.3v-0.7c0-1.5-1.2-2.8-2.8-2.8h-0.7
				c-0.2,0-0.3-0.1-0.3-0.3V5c0-0.2-0.1-0.3-0.3-0.3h-0.7c-0.2,0-0.3,0.1-0.3,0.3v4c0,0.2-0.1,0.3-0.3,0.3c-1.4,0.1-2.5,1.3-2.5,2.7
				v1.2c0,1.1,0.9,2.1,2.1,2.1c1.1,0,2.1-0.9,2.1-2.1V11c0-0.2,0.1-0.3,0.3-0.3h0.7c0.8,0,1.4,0.6,1.4,1.4v0.7
				c0,1.4,1.2,2.6,2.6,2.6c1.4,0,2.6-1.2,2.6-2.6V9.7c0-0.2-0.1-0.3-0.3-0.3h-0.7c-0.2,0-0.3,0.1-0.3,0.3V12.8z M15.1,13.4
				c0,0.4-0.3,0.7-0.7,0.7c-0.4,0-0.7-0.3-0.7-0.7v-1.2c0-0.7,0.5-1.2,1.1-1.4c0.2,0,0.3,0.1,0.3,0.3V13.4z"/>
			<path class="st0" d="M32.1,5.9c0-1.1-0.9-2-1.9-2h-2.5c-1.1,0-1.9,0.9-1.9,1.9v0.4c0,0.2-0.1,0.3-0.3,0.3h-0.9
				c-0.2,0-0.3,0.1-0.3,0.3v0.7c0,0.2,0.1,0.3,0.3,0.3h0.9c0.2,0,0.3,0.1,0.3,0.3v4.6c0,0.2,0.1,0.3,0.3,0.3h0.7
				c0.2,0,0.3-0.1,0.3-0.3V8.2c0-0.2,0.1-0.3,0.3-0.3h2.8C31.2,7.9,32.1,7,32.1,5.9 M27,5.9c0-0.3,0.3-0.6,0.6-0.6h2.5
				c0.3,0,0.6,0.3,0.6,0.6c0,0.3-0.3,0.6-0.6,0.6h-2.8c-0.2,0-0.3-0.1-0.3-0.3V5.9z"/>
			<path class="st0" d="M35,6.5c-0.9,0-1.7,0.8-1.7,1.7V9c0,0.2-0.1,0.3-0.3,0.3h-1.7c-1.5,0-2.8,1.2-2.8,2.8v0.5
				c0,1.5,1.2,2.8,2.8,2.8h0.6c1.5,0,2.8-1.2,2.8-2.8V11c0-0.2,0.1-0.3,0.3-0.3h1.3c0.2,0,0.3-0.1,0.3-0.3V9.7
				c0-0.2-0.1-0.3-0.3-0.3h-1.3c-0.2,0-0.3-0.1-0.3-0.3V8.2c0-0.2,0.2-0.4,0.4-0.4h1.2c0.2,0,0.3-0.1,0.3-0.3V6.8
				c0-0.2-0.1-0.3-0.3-0.3H35z M33.2,12.7c0,0.8-0.6,1.4-1.4,1.4h-0.6c-0.8,0-1.4-0.6-1.4-1.4v-0.5c0-0.8,0.6-1.4,1.4-1.4h1.7
				c0.2,0,0.3,0.1,0.3,0.3V12.7z"/>
			<path class="st0" d="M39.7,8.4h2.8c0.2,0,0.3-0.1,0.3-0.3V7.4c0-0.2-0.1-0.3-0.3-0.3h-2.8c-0.2,0-0.4-0.2-0.4-0.4V6.4
				c0-0.2,0.1-0.3,0.3-0.3h2.9c0.2,0,0.3-0.1,0.3-0.3V5.1c0-0.2-0.1-0.3-0.3-0.3h-2.9c-0.2,0-0.3-0.1-0.3-0.3V4.1
				c0-0.2,0.2-0.4,0.4-0.4h3.8c0.2,0,0.3,0.1,0.3,0.3v4.1c0,0.2,0.1,0.3,0.3,0.3h0.7c0.2,0,0.3-0.1,0.3-0.3V4c0-0.2,0.1-0.3,0.3-0.3
				h3.8c0.2,0,0.4,0.2,0.4,0.4v0.3c0,0.2-0.1,0.3-0.3,0.3h-2.8c-0.2,0-0.3,0.1-0.3,0.3v0.7c0,0.2,0.1,0.3,0.3,0.3h2.8
				c0.2,0,0.3,0.1,0.3,0.3v0.3c0,0.2-0.2,0.4-0.4,0.4h-2.8c-0.2,0-0.3,0.1-0.3,0.3v0.7c0,0.2,0.1,0.3,0.3,0.3h2.8
				c0.9,0,1.7-0.8,1.7-1.7V4.1c0-0.9-0.8-1.7-1.7-1.7h-3.8c-0.2,0-0.3-0.1-0.3-0.3V1.7c0-0.2,0.1-0.3,0.3-0.3h5.2
				C50.9,1.4,51,1.2,51,1V0.3C51,0.1,50.9,0,50.7,0H38.3C38.1,0,38,0.1,38,0.3V1c0,0.2,0.1,0.3,0.3,0.3h5.2c0.2,0,0.3,0.1,0.3,0.3
				v0.4c0,0.2-0.1,0.3-0.3,0.3h-3.8c-0.9,0-1.7,0.8-1.7,1.7v2.6C38,7.7,38.8,8.4,39.7,8.4"/>
			<path class="st0" d="M45.2,16.2v-0.4c0-0.2,0.1-0.3,0.3-0.3h3.8c0.9,0,1.7-0.8,1.7-1.7v-2.6c0-0.9-0.8-1.7-1.7-1.7h-9.6
				c-0.9,0-1.7,0.8-1.7,1.7v2.6c0,0.9,0.8,1.7,1.7,1.7h3.8c0.2,0,0.3,0.1,0.3,0.3v0.4c0,0.9,0.8,1.7,1.7,1.7h5.1
				c0.2,0,0.3-0.1,0.3-0.3v-0.7c0-0.2-0.1-0.3-0.3-0.3h-5.1C45.4,16.6,45.2,16.4,45.2,16.2 M49.6,13.7c0,0.2-0.2,0.4-0.4,0.4h-3.8
				c-0.2,0-0.3-0.1-0.3-0.3v-0.4c0-0.2,0.1-0.3,0.3-0.3h3.8c0.2,0,0.3,0.1,0.3,0.3V13.7z M49.6,11.1v0.3c0,0.2-0.1,0.3-0.3,0.3h-3.8
				c-0.2,0-0.3-0.1-0.3-0.3V11c0-0.2,0.1-0.3,0.3-0.3h3.8C49.5,10.7,49.6,10.9,49.6,11.1 M39.4,11.1c0-0.2,0.2-0.4,0.4-0.4h3.8
				c0.2,0,0.3,0.1,0.3,0.3v0.4c0,0.2-0.1,0.3-0.3,0.3h-3.9c-0.2,0-0.3-0.1-0.3-0.3V11.1z M39.7,14.1c-0.2,0-0.4-0.2-0.4-0.4v-0.3
				c0-0.2,0.1-0.3,0.3-0.3h3.9c0.2,0,0.3,0.1,0.3,0.3v0.4c0,0.2-0.1,0.3-0.3,0.3H39.7z"/>
			<path class="st0" d="M61.7,4.7h-4.6c-0.1-0.1-0.2-0.2-0.3-0.3V2.7c-0.1-0.1-0.2-0.2-0.3-0.3h-0.7c-0.1,0.1-0.2,0.2-0.3,0.3v1.7
				c-0.1,0.1-0.2,0.2-0.3,0.3h-2.3c-0.1,0.1-0.2,0.2-0.3,0.3v0.7c0.1,0.1,0.2,0.2,0.3,0.3h2.3c0.1,0.1,0.2,0.2,0.3,0.3v7.3
				c-0.1,0.1-0.2,0.2-0.4,0.4h-2.3c-0.1,0.1-0.2,0.2-0.3,0.3v0.7c0.1,0.1,0.2,0.2,0.3,0.3h2.3c0.7-0.7,1-1,1.7-1.7V6.4
				c0.1-0.1,0.2-0.2,0.3-0.3h4.6c0.1,0.1,0.2,0.2,0.4,0.4v7.3c-0.1,0.1-0.2,0.2-0.4,0.4h-2.1c-0.1,0.1-0.2,0.2-0.3,0.3v0.7
				c0.1,0.1,0.2,0.2,0.3,0.3h2.1c0.7-0.7,1-1,1.7-1.7V6.5C63.5,5.5,62.7,4.7,61.7,4.7"/>
		</g>
	</g>
</g>
</svg>
